<svg width="69" height="30" viewBox="0 0 69 30" fill="none" xmlns="http://www.w3.org/2000/svg">
<path d="M0.655293 14.7727V12.4886C1.9659 12.4886 2.87499 12.2273 3.38257 11.7045C3.89014 11.1818 4.14393 10.3371 4.14393 9.17045V6.65909C4.14393 5.25758 4.33711 4.13636 4.72347 3.29545C5.11741 2.44697 5.66287 1.80682 6.35984 1.375C7.06438 0.943181 7.89772 0.655302 8.85984 0.511362C9.82196 0.367423 10.875 0.295454 12.0189 0.295454V3.90909C11.125 3.90909 10.4432 4.02651 9.97348 4.26136C9.51135 4.48864 9.19696 4.8447 9.03029 5.32954C8.86363 5.80682 8.78029 6.41288 8.78029 7.14773V10.4659C8.78029 11.0417 8.67423 11.5909 8.46211 12.1136C8.24999 12.6288 7.85605 13.0871 7.28029 13.4886C6.70454 13.8826 5.88257 14.197 4.81438 14.4318C3.7462 14.6591 2.35984 14.7727 0.655293 14.7727ZM12.0189 29.0568C10.875 29.0568 9.82196 28.9848 8.85984 28.8409C7.89772 28.697 7.06438 28.4091 6.35984 27.9773C5.66287 27.5455 5.11741 26.9053 4.72347 26.0568C4.33711 25.2159 4.14393 24.0947 4.14393 22.6932V20.1705C4.14393 19.0038 3.89014 18.1591 3.38257 17.6364C2.87499 17.1136 1.9659 16.8523 0.655293 16.8523V14.5682C2.35984 14.5682 3.7462 14.6856 4.81438 14.9205C5.88257 15.1477 6.70454 15.4621 7.28029 15.8636C7.85605 16.2576 8.24999 16.7159 8.46211 17.2386C8.67423 17.7538 8.78029 18.303 8.78029 18.8864V22.2045C8.78029 22.9318 8.86363 23.5341 9.03029 24.0114C9.19696 24.4962 9.51135 24.8523 9.97348 25.0795C10.4432 25.3144 11.125 25.4318 12.0189 25.4318V29.0568ZM0.655293 16.8523V12.4886H4.73484V16.8523H0.655293ZM15.6354 16.6932V12.6932L31.6354 5.64773V10.25L20.6809 14.6477L20.8286 14.4091V14.9773L20.6809 14.7386L31.6354 19.1364V23.7386L15.6354 16.6932ZM53.3854 16.6932L37.3854 23.7386V19.1364L48.34 14.7386L48.1922 14.9773V14.4091L48.34 14.6477L37.3854 10.25V5.64773L53.3854 12.6932V16.6932ZM68.3627 14.5682V16.8523C67.0596 16.8523 66.1506 17.1136 65.6354 17.6364C65.1278 18.1591 64.874 19.0038 64.874 20.1705V22.6932C64.874 24.0947 64.6771 25.2159 64.2831 26.0568C63.8968 26.9053 63.3513 27.5455 62.6468 27.9773C61.9498 28.4091 61.1203 28.697 60.1581 28.8409C59.2036 28.9848 58.1506 29.0568 56.999 29.0568V25.4318C57.893 25.4318 58.571 25.3144 59.0331 25.0795C59.5028 24.8523 59.821 24.4962 59.9877 24.0114C60.1543 23.5341 60.2377 22.9318 60.2377 22.2045V18.8864C60.2377 18.303 60.3437 17.7538 60.5559 17.2386C60.768 16.7159 61.1619 16.2576 61.7377 15.8636C62.3134 15.4621 63.1354 15.1477 64.2036 14.9205C65.2718 14.6856 66.6581 14.5682 68.3627 14.5682ZM56.999 0.295454C58.1506 0.295454 59.2036 0.367423 60.1581 0.511362C61.1203 0.655302 61.9498 0.943181 62.6468 1.375C63.3513 1.80682 63.8968 2.44697 64.2831 3.29545C64.6771 4.13636 64.874 5.25758 64.874 6.65909V9.17045C64.874 10.3371 65.1278 11.1818 65.6354 11.7045C66.1506 12.2273 67.0596 12.4886 68.3627 12.4886V14.7727C66.6581 14.7727 65.2718 14.6591 64.2036 14.4318C63.1354 14.197 62.3134 13.8826 61.7377 13.4886C61.1619 13.0871 60.768 12.6288 60.5559 12.1136C60.3437 11.5909 60.2377 11.0417 60.2377 10.4659V7.14773C60.2377 6.41288 60.1543 5.80682 59.9877 5.32954C59.821 4.8447 59.5028 4.48864 59.0331 4.26136C58.571 4.02651 57.893 3.90909 56.999 3.90909V0.295454ZM68.3627 12.4886V16.8523H64.2831V12.4886H68.3627Z" fill="white"/>
</svg>
