<svg width="57" height="57" viewBox="0 0 57 57" fill="none" xmlns="http://www.w3.org/2000/svg">
<g clip-path="url(#clip0_10_3)">
<path d="M35.9441 14.9028C35.7116 15.2904 35.3347 15.5697 34.8962 15.6794C34.4578 15.7891 33.9937 15.7201 33.6061 15.4876L24.838 10.2282C24.4504 9.99574 23.9864 9.92675 23.5479 10.0364C23.1095 10.1461 22.7326 10.4254 22.5001 10.813L10.2282 31.272C9.99577 31.6595 9.92678 32.1236 10.0364 32.562C10.1461 33.0005 10.4255 33.3774 10.813 33.6099L31.272 45.8817C31.6596 46.1142 32.1236 46.1832 32.5621 46.0735C33.0005 45.9639 33.3774 45.6845 33.6099 45.2969L38.8693 36.5288C39.1018 36.1412 39.4787 35.8619 39.9171 35.7522C40.3556 35.6426 40.8196 35.7115 41.2072 35.944C41.5948 36.1765 41.8741 36.5534 41.9838 36.9919C42.0935 37.4303 42.0245 37.8944 41.792 38.2819L36.5326 47.0501C35.8352 48.2128 34.7044 49.0508 33.3891 49.3798C32.0738 49.7089 30.6816 49.5019 29.5189 48.8044L9.05992 36.5326C7.89719 35.8352 7.05915 34.7044 6.73014 33.3891C6.40113 32.0737 6.60811 30.6816 7.30554 29.5188L19.5774 9.05989C20.2748 7.89717 21.4056 7.05912 22.7209 6.73011C24.0363 6.4011 25.4284 6.60808 26.5911 7.30551L35.3593 12.5649C35.7468 12.7974 36.0262 13.1743 36.1359 13.6127C36.2455 14.0512 36.1765 14.5152 35.9441 14.9028ZM21.685 36.1569L15.4889 32.4403C15.1013 32.2078 14.8219 31.8309 14.7123 31.3925C14.6026 30.954 14.6716 30.49 14.9041 30.1024L18.6207 23.9062C18.7349 23.7133 18.8862 23.5447 19.0657 23.4103C19.2452 23.2759 19.4495 23.1782 19.6668 23.1229L35.8598 19.0849L42.4118 17.3715C42.6298 17.316 42.8567 17.3042 43.0793 17.3368C43.3018 17.3695 43.5158 17.4459 43.7087 17.5616C43.9016 17.6773 44.0697 17.8301 44.2033 18.0111C44.3368 18.1921 44.4333 18.3977 44.4869 18.6162L47.0395 28.5728C47.095 28.7908 47.1068 29.0176 47.0742 29.2402C47.0415 29.4628 46.9652 29.6767 46.8494 29.8696C46.7337 30.0625 46.581 30.2306 46.4 30.3642C46.2189 30.4978 46.0133 30.5942 45.7948 30.6479L39.1873 32.2883L22.9768 36.3555C22.759 36.409 22.5328 36.419 22.3111 36.385C22.0894 36.3509 21.8767 36.2734 21.685 36.1569V36.1569ZM43.3191 27.752L41.6641 21.1357L38.3443 21.9661L39.9993 28.5824L43.3191 27.752ZM22.839 32.8748L36.7028 29.407L35.0478 22.7907L21.184 26.2585L18.7033 30.3941L22.839 32.8748Z" fill="white"/>
</g>
<defs>
<clipPath id="clip0_10_3">
<rect width="40.8981" height="40.8981" fill="white" transform="matrix(0.514387 -0.857558 -0.857558 -0.514387 35.0725 56.11)"/>
</clipPath>
</defs>
</svg>
